<svg width="473" height="315" fill="none"
  xmlns="http://www.w3.org/2000/svg">
  <path d="M151.588 602.362c129.416 26.822 266.588-53.178 308.027-178.614 42.502-129.483-24.559-277.162-149.564-330.411-33.475-14.38-69.961-21.912-106.031-21.672-14.84.078-31.637 4.127-45.963.292-11.792-2.989-18.426-14.8-23.143-25.908-4.442-11.174-6.471-23.22-8.71-34.926-2.314-10.812-2.285-14.317-12.645-7.739-18.65 12.075-35.477 28.084-50.86 44.037-98.677 101.916-162.52 261.322-101.485 398.501 34.868 78.182 105.743 138.939 190.374 156.44Z" fill="#E2F4FD"/>
</svg>
