<svg width="360" height="333" fill="none"
  xmlns="http://www.w3.org/2000/svg">
  <path d="M342.982-201.201c-107.866-50.825-245.126-9.705-308.005 91.433C-29.692-5.31-2.086 138.224 96.322 211.268c26.328 19.666 56.745 33.968 88.44 41.375 13.036 3.064 28.628 3.064 40.386 9.449 9.713 5.108 13.036 16.857 14.825 27.583 1.534 10.727.767 21.709.256 32.436-.256 9.961-1.023 13.026 9.457 9.45 18.915-6.64 37.063-17.112 53.933-27.839C411.74 235.275 501.458 109.108 476.92-23.954 462.862-99.808 413.53-168 342.982-201.201Z" fill="#EAEDFA"/>
</svg>
