<svg width="99" height="110" viewBox="0 0 99 110" fill="none" xmlns="http://www.w3.org/2000/svg">
<path d="M76.1057 23.9975C58.8011 15.8152 36.7809 22.435 26.6934 38.7175C16.3189 55.5345 20.7475 78.6425 36.5349 90.402C40.7585 93.5681 45.6382 95.8706 50.723 97.063C52.8143 97.5565 55.3156 97.5565 57.2019 98.5844C58.7601 99.4067 59.2932 101.298 59.5803 103.025C59.8263 104.752 59.7033 106.52 59.6213 108.247C59.5803 109.851 59.4572 110.344 61.1385 109.768C64.1729 108.699 67.0844 107.013 69.7908 105.287C87.1363 94.2671 101.529 73.9551 97.5929 52.533C95.3375 40.3211 87.4234 29.3428 76.1057 23.9975Z" fill="#213793"/>
<path d="M22.1417 86.0025C39.4463 94.1848 61.4665 87.5649 71.554 71.2825C81.9286 54.4655 77.4999 31.3575 61.7126 19.598C57.4889 16.4319 52.6092 14.1293 47.5245 12.9369C45.4332 12.4435 42.9318 12.4435 41.0455 11.4156C39.4873 10.5932 38.9542 8.70185 38.6672 6.97492C38.4211 5.24799 38.5441 3.47995 38.6262 1.75302C38.6672 0.14944 38.7902 -0.343968 37.1089 0.231675C34.0745 1.30073 31.1631 2.98654 28.4567 4.71347C11.1111 15.7329 -3.28205 36.0449 0.654537 57.467C2.90987 69.6789 10.824 80.6572 22.1417 86.0025Z" fill="#40B5F5"/>
</svg>
