<svg width="106" height="32" fill="none"
  xmlns="http://www.w3.org/2000/svg">
  <path d="M22.2 6.981c-5.048-2.38-11.471-.454-14.414 4.282C4.76 16.156 6.052 22.878 10.657 26.3a11.23 11.23 0 0 0 4.139 1.938c.61.143 1.34.143 1.89.442.454.24.61.79.694 1.292.071.502.035 1.017.011 1.519-.011.466-.047.61.443.443.885-.311 1.734-.802 2.524-1.304 5.06-3.206 9.258-9.115 8.11-15.347-.658-3.552-2.967-6.746-6.268-8.3Z" fill="#213793"/>
  <path d="M6.459 25.019c5.047 2.38 11.47.454 14.413-4.282 3.026-4.892 1.735-11.615-2.87-15.036a11.23 11.23 0 0 0-4.14-1.938c-.61-.143-1.339-.143-1.89-.442-.454-.24-.61-.79-.693-1.292-.072-.502-.036-1.017-.012-1.519.012-.467.048-.61-.442-.443C9.939.378 9.09.87 8.3 1.371 3.24 4.577-.957 10.486.19 16.718c.658 3.552 2.966 6.746 6.268 8.3ZM45.704 19.098a4.569 4.569 0 0 1-4.57 4.57h-6.733V8.451h5.86a4.354 4.354 0 0 1 4.355 4.354 4.34 4.34 0 0 1-.826 2.572 4.608 4.608 0 0 1 1.914 3.72ZM37.02 11.06v3.469h3.445c.395-.048.765-.192 1.04-.479a1.83 1.83 0 0 0 .503-1.244c0-.454-.18-.897-.502-1.244a1.786 1.786 0 0 0-1.244-.502H37.02Zm6.076 8.038c0-.526-.19-1.005-.562-1.376a1.984 1.984 0 0 0-1.4-.586h-.55c-.107.024-.215.024-.322.024H37.02v3.9h4.115c.526 0 1.029-.192 1.4-.563.358-.37.562-.849.562-1.399ZM47.163 9.971c0-.849.67-1.519 1.52-1.519.849 0 1.519.67 1.519 1.52 0 .849-.67 1.519-1.52 1.519-.849.011-1.519-.67-1.519-1.52Zm.24 13.732V12.818h2.62v10.885h-2.62ZM52.103 23.703V8.453h2.62v15.25h-2.62ZM56.685 23.703V8.453h2.62v15.25h-2.62Z" fill="#40B5F5"/>
  <path d="M74.543 8.452v2.62h-5.012v12.631h-2.62V11.06H61.9V8.44h12.643v.012Z" fill="#213793"/>
  <path d="M79.698 12.806h2.62v10.885h-2.62v-1.28c-.717.802-1.746 1.4-3.157 1.4-3.003 0-5.251-2.5-5.251-5.55 0-3.074 2.248-5.55 5.25-5.55 1.4 0 2.417.55 3.158 1.351v-1.256Zm0 5.443c0-.85-.322-1.639-.897-2.225-.562-.562-1.28-.897-2.069-.897a2.81 2.81 0 0 0-2.045.897c-.587.586-.897 1.375-.897 2.225 0 .825.298 1.638.897 2.225.55.55 1.28.873 2.045.873a2.84 2.84 0 0 0 2.07-.873c.597-.587.896-1.4.896-2.225ZM84.28 23.703V8.453h2.607v15.25H84.28ZM88.849 23.703V8.453h2.62v15.25h-2.62ZM94.638 30.21l3.098-6.638-4.772-10.766h2.858l3.373 7.608 3.529-7.608h2.871l-4.988 10.778v.024l-.024.023-3.05 6.58h-2.895Z" fill="#213793"/>
</svg>
